<?xml version="1.0" encoding="UTF-8"?>
<svg xmlns="http://www.w3.org/2000/svg" version="1.1" width="300" height="300" viewBox="0 0 300 300"><rect x="0" y="0" width="300" height="300" fill="#fefefe"/><g transform="scale(7.317)"><g transform="translate(4.000,4.000)"><path fill-rule="evenodd" d="M9 0L9 1L11 1L11 2L9 2L9 3L8 3L8 5L9 5L9 6L8 6L8 7L9 7L9 9L8 9L8 8L5 8L5 9L4 9L4 10L3 10L3 9L2 9L2 8L0 8L0 9L1 9L1 10L2 10L2 11L4 11L4 12L1 12L1 13L0 13L0 14L3 14L3 13L5 13L5 12L6 12L6 13L7 13L7 12L6 12L6 11L7 11L7 10L5 10L5 9L8 9L8 13L10 13L10 15L8 15L8 14L4 14L4 15L0 15L0 16L1 16L1 19L2 19L2 20L3 20L3 21L4 21L4 22L2 22L2 21L1 21L1 20L0 20L0 25L7 25L7 24L8 24L8 23L9 23L9 24L10 24L10 25L14 25L14 23L16 23L16 24L15 24L15 27L16 27L16 29L12 29L12 27L13 27L13 26L10 26L10 27L9 27L9 25L8 25L8 28L10 28L10 27L11 27L11 29L12 29L12 30L11 30L11 31L12 31L12 33L13 33L13 32L14 32L14 33L15 33L15 32L14 32L14 31L12 31L12 30L15 30L15 31L16 31L16 32L17 32L17 31L18 31L18 32L19 32L19 31L20 31L20 32L21 32L21 31L22 31L22 29L23 29L23 30L24 30L24 31L23 31L23 32L22 32L22 33L23 33L23 32L24 32L24 33L25 33L25 32L24 32L24 31L25 31L25 29L27 29L27 31L26 31L26 33L27 33L27 31L28 31L28 33L29 33L29 31L30 31L30 32L31 32L31 33L32 33L32 32L31 32L31 31L33 31L33 29L32 29L32 28L31 28L31 27L32 27L32 26L33 26L33 25L32 25L32 24L31 24L31 23L32 23L32 20L31 20L31 19L30 19L30 20L28 20L28 22L26 22L26 21L23 21L23 20L24 20L24 18L26 18L26 20L27 20L27 19L29 19L29 18L30 18L30 17L29 17L29 16L28 16L28 15L30 15L30 16L31 16L31 18L32 18L32 19L33 19L33 17L32 17L32 16L33 16L33 15L32 15L32 14L33 14L33 12L31 12L31 11L30 11L30 12L29 12L29 14L27 14L27 11L26 11L26 9L25 9L25 11L26 11L26 12L24 12L24 11L23 11L23 10L24 10L24 9L23 9L23 8L22 8L22 10L21 10L21 4L22 4L22 1L23 1L23 0L21 0L21 1L20 1L20 0L17 0L17 2L16 2L16 0L13 0L13 1L12 1L12 0ZM13 1L13 2L12 2L12 4L11 4L11 7L10 7L10 6L9 6L9 7L10 7L10 8L11 8L11 10L10 10L10 9L9 9L9 10L10 10L10 11L9 11L9 12L10 12L10 11L11 11L11 10L13 10L13 11L12 11L12 12L11 12L11 17L10 17L10 18L9 18L9 17L8 17L8 18L7 18L7 17L6 17L6 16L8 16L8 15L6 15L6 16L5 16L5 15L4 15L4 16L3 16L3 17L2 17L2 18L3 18L3 19L4 19L4 20L5 20L5 22L4 22L4 24L7 24L7 23L8 23L8 22L9 22L9 23L10 23L10 24L12 24L12 23L13 23L13 22L12 22L12 21L14 21L14 22L16 22L16 21L17 21L17 22L18 22L18 21L19 21L19 20L18 20L18 18L20 18L20 19L21 19L21 20L20 20L20 21L21 21L21 22L22 22L22 23L20 23L20 22L19 22L19 24L18 24L18 23L17 23L17 24L16 24L16 27L17 27L17 29L16 29L16 31L17 31L17 30L18 30L18 31L19 31L19 30L18 30L18 29L19 29L19 28L20 28L20 31L21 31L21 29L22 29L22 27L23 27L23 29L24 29L24 27L23 27L23 24L24 24L24 23L26 23L26 24L29 24L29 25L31 25L31 26L30 26L30 27L29 27L29 28L30 28L30 29L29 29L29 30L30 30L30 31L31 31L31 30L30 30L30 29L31 29L31 28L30 28L30 27L31 27L31 26L32 26L32 25L31 25L31 24L30 24L30 23L26 23L26 22L22 22L22 20L23 20L23 18L22 18L22 16L23 16L23 17L27 17L27 18L29 18L29 17L27 17L27 15L25 15L25 14L26 14L26 13L25 13L25 14L23 14L23 13L24 13L24 12L23 12L23 13L22 13L22 11L21 11L21 10L19 10L19 9L20 9L20 8L19 8L19 7L20 7L20 4L19 4L19 3L20 3L20 1L18 1L18 2L17 2L17 3L16 3L16 2L15 2L15 1ZM14 2L14 4L12 4L12 5L13 5L13 6L12 6L12 9L13 9L13 8L14 8L14 10L15 10L15 9L16 9L16 8L14 8L14 7L15 7L15 5L16 5L16 7L17 7L17 5L18 5L18 7L19 7L19 4L17 4L17 5L16 5L16 3L15 3L15 2ZM24 2L24 4L23 4L23 5L22 5L22 7L23 7L23 5L24 5L24 7L25 7L25 5L24 5L24 4L25 4L25 2ZM9 3L9 5L10 5L10 3ZM13 6L13 7L14 7L14 6ZM17 8L17 9L18 9L18 8ZM28 8L28 10L29 10L29 9L30 9L30 8ZM31 9L31 10L32 10L32 9ZM17 10L17 11L14 11L14 12L13 12L13 13L12 13L12 14L13 14L13 15L12 15L12 17L13 17L13 16L14 16L14 17L16 17L16 19L15 19L15 18L12 18L12 19L11 19L11 18L10 18L10 21L9 21L9 22L10 22L10 21L12 21L12 19L14 19L14 20L17 20L17 21L18 21L18 20L17 20L17 18L18 18L18 16L19 16L19 17L20 17L20 18L21 18L21 19L22 19L22 18L21 18L21 17L20 17L20 15L21 15L21 14L22 14L22 15L23 15L23 16L25 16L25 15L23 15L23 14L22 14L22 13L20 13L20 15L19 15L19 14L15 14L15 12L17 12L17 11L19 11L19 12L20 12L20 11L19 11L19 10ZM30 12L30 15L31 15L31 16L32 16L32 15L31 15L31 12ZM15 15L15 16L16 16L16 17L17 17L17 16L18 16L18 15L17 15L17 16L16 16L16 15ZM5 17L5 18L6 18L6 19L7 19L7 20L6 20L6 21L7 21L7 22L5 22L5 23L7 23L7 22L8 22L8 21L7 21L7 20L9 20L9 18L8 18L8 19L7 19L7 18L6 18L6 17ZM30 20L30 21L29 21L29 22L30 22L30 21L31 21L31 20ZM1 22L1 24L3 24L3 23L2 23L2 22ZM22 23L22 24L23 24L23 23ZM19 24L19 25L18 25L18 26L17 26L17 27L18 27L18 28L19 28L19 27L18 27L18 26L20 26L20 27L21 27L21 26L20 26L20 24ZM25 25L25 28L28 28L28 25ZM26 26L26 27L27 27L27 26ZM9 30L9 31L8 31L8 33L11 33L11 32L10 32L10 30ZM0 0L0 7L7 7L7 0ZM1 1L1 6L6 6L6 1ZM2 2L2 5L5 5L5 2ZM33 0L26 0L26 7L33 7ZM32 1L27 1L27 6L32 6ZM31 2L28 2L28 5L31 5ZM0 33L7 33L7 26L0 26ZM1 32L6 32L6 27L1 27ZM2 31L5 31L5 28L2 28Z" fill="#000000"/></g></g></svg>
